<?xml version="1.0" encoding="UTF-8"?>
<!DOCTYPE svg PUBLIC "-//W3C//DTD SVG 1.1//EN" "http://www.w3.org/Graphics/SVG/1.1/DTD/svg11.dtd">
<!-- Creator: CorelDRAW 2020 (64 Bit) -->
<svg xmlns="http://www.w3.org/2000/svg" xml:space="preserve" width="90.7153mm" height="53.8081mm" version="1.1" style="shape-rendering:geometricPrecision; text-rendering:geometricPrecision; image-rendering:optimizeQuality; fill-rule:evenodd; clip-rule:evenodd"
viewBox="0 0 11500.33 6821.46"
 xmlns:xlink="http://www.w3.org/1999/xlink"
 xmlns:xodm="http://www.corel.com/coreldraw/odm/2003">
 <defs>
  <style type="text/css">
   <![CDATA[
    .fil0 {fill:#4f758b}
   ]]>
  </style>
 </defs>
 <g id="Camada_x0020_1">
  <metadata id="CorelCorpID_0Corel-Layer"/>
  <path class="fil0" d="M6550.4 3496.54c-28.94,24.3 2.28,5.29 -47.12,28.37l-153.43 46.27c0,128.1 21.21,233.39 -40.15,323.16 -35.56,51.99 -122.87,161.64 -177.71,188.08 -21.86,80.46 -109.3,164.17 -163.98,236.15 -60.53,79.69 -115.69,142.49 -179.51,225.53 -94.9,123.47 -302.55,334.66 -316.31,516.87 -16.18,213.98 133.32,457.12 257.3,545.9 212.94,152.48 461.46,-5.64 586.67,-112.37l9.1 509.24 730.65 -282.36c132.72,-55.5 134.2,-69.14 270.13,-21.74 350,122.05 687.42,246.46 1031,366.64 290.71,101.67 209.21,116.21 541.16,57.28l1749.88 -341.92 2.83 -287.21c575.84,450.6 841.84,-106.08 849.28,-396.71 4.35,-170.04 -98.24,-279.23 -166.59,-365.49 -101.61,-128.19 -675.5,-797.98 -686.18,-934.46 -12.31,-157.54 0.66,-379.62 0.66,-544.4 -334.33,36.5 -2005.57,508.25 -2149.44,465.22 -89.15,-26.65 -334.75,-166.81 -437.53,-218.14 -140.4,-70.11 -314.01,-172.97 -450.02,-227.27 -167.49,-66.87 -848.31,238.08 -1060.68,223.36zm-11.21 255.32c0,103.97 -29.82,665.03 10.42,755.45 293.01,-137.63 794.72,-507.89 1044.01,-382.27 100.62,50.7 173.76,223.01 92.19,358.99 -91.95,153.27 -647.81,512.1 -856.47,651.03 -108.9,72.5 -198.43,153.92 -305.13,205.22l-9.98 388.3c651.48,-200.09 498.83,-329.62 947.23,-184.35 312.64,101.28 616.83,227.71 927.39,332.24 224.68,75.62 211.23,111.74 478.51,59.46l1588.46 -304.56c0,-337.81 91.8,-234.48 -605.59,-698.84 -160.81,-107.09 -488.05,-306.51 -570.85,-463.75 -85.55,-162.47 29.83,-534.92 518.37,-291.8 122.16,60.79 201.15,118.6 334.68,181.3 145.32,68.24 207.45,150.21 319.98,203.31l3.61 -1067.84 -1557.71 353.09c-310.9,78.3 -339.11,119.66 -514.89,28.06 -975.25,-508.24 -734.95,-461.28 -1349.86,-293.96 -75.27,20.49 -178.14,44.7 -251.52,64.02 -48.95,12.89 -81.57,21.58 -124.21,33.3 -78.38,21.55 -88.89,20.59 -118.63,73.63z"/>
  <path class="fil0" d="M5386.24 4563.31c-32.42,-51.04 -30.21,-140.93 -31.96,-203.33 -11.59,-413.69 -71.51,-906.04 -174.71,-1283.59 -59.17,-38.31 -51.89,-82.68 -136.33,-138.58 -171.59,-113.59 -482.84,-157.28 -700.48,-185.5 167.77,386.55 129.97,500.78 132.48,977.01 1.94,367.47 0.27,735.91 -0.43,1103.43 30.69,120.6 140.73,-23.55 138.34,405.23 -6.02,1083.8 91.07,1050.22 -576.95,1050.22l77.32 -123.64c469.08,23.11 381.75,43.42 386.58,-881.52 2.18,-416.07 4.39,-337.69 -945.49,-337.69 -968.17,0 -901.69,-68.84 -900.79,382.81 0.42,210.48 -2.76,422.11 -1.45,632.26 1.76,281.46 135.13,150.91 240.96,234.68 6.86,5.44 58.01,84.01 60.57,86.59 -470.38,62.59 -412.66,-216.53 -412.66,-593.21 0.01,-493.42 -76.1,-757.97 202.27,-853.94 -16.99,-357.91 -0.71,-743.38 -3.49,-1105.21 -2.66,-347.89 -22.15,-739.64 116.07,-990.42 -324.05,17.32 -879,124.76 -1305.45,-22.41 -164.29,-56.69 -194.32,-221.18 -282.54,-439.09 -71.28,-176.09 -129.16,-354.61 -192.19,-529.18 -82.3,-227.94 -486.15,-1511.71 -552.71,-1608.28 -103.11,-149.54 -378.72,-185.19 -492.33,-25.23 -187.3,263.68 528.24,3201.13 787.51,3468.86 244.72,252.72 829.38,167.23 1241.67,199.49l63.68 3024.09 3257.97 7.42 4.53 -2251.26zm-1411.31 721.98l370.26 6.95c0.09,-190.21 84.75,-284.97 -348.75,-219.88l-21.5 212.93zm-593.73 17.48c-354.09,76.67 -494.98,375.31 -429.9,672.64 57.72,263.75 353.42,484.91 683.07,401.96 680.88,-171.31 470.79,-1231.35 -253.17,-1074.6z"/>
  <path class="fil0" d="M3497.68 213.3c-287,48.88 -515.99,139.11 -707.58,386.48 -614.65,793.62 58.82,1919.39 1029.96,1749.97 514.7,-89.78 1009.99,-582.15 896.01,-1247.12 -90.05,-525.3 -594.84,-995.54 -1218.4,-889.33z"/>
  <path class="fil0" d="M2947 4832.35c146.93,-14.29 36.74,13.92 81.63,-55.05 31.9,-48.97 -17.22,-58.63 79.58,-78.76 118.77,-24.71 133.81,42.29 144.95,134.22l1005.16 -0.38 2.97 -1598.47c-0.16,-263.09 -120.52,-508.12 -335.71,-551.04 -277.91,-55.43 -316.72,-31.47 -593.42,-7.58 -140.78,12.16 -175.13,13.25 -247.54,110.24 -124.02,166.12 -138.58,323.21 -138.07,583.48 0.95,487.65 -2.74,975.78 0.44,1463.34z"/>
  <path class="fil0" d="M7195.47 700.59c-42.49,85.85 -66.91,59.81 -117.48,168.84 85.62,59.46 391.87,67.18 509.58,109.11l50.32 24c3.9,1.99 11.08,5.76 15.95,9.61 194.51,-25.87 2309.4,440.68 2559.17,435.57 -1.28,-172.94 -85.61,-273.17 -200.15,-347.5 -272.59,-176.89 -132.76,-13.98 -245.74,-340.49 -335.51,-969.63 -1711.84,-1006.29 -2113.65,-137.6 -191.34,7.62 -329.81,68.26 -458,78.46z"/>
  <path class="fil0" d="M8224.85 2387.01c385.25,96.27 677.56,97.53 973.33,-107.54 255.56,-177.18 371.55,-333.96 476.58,-707.83l-2129.09 -402.27c-41.26,302.44 -0.47,552.94 141.54,770.14 72.68,111.17 113.18,175.7 228.43,265.16 103.83,80.59 214.82,125.27 309.2,182.34z"/>
  <path class="fil0" d="M7202.96 6003.74l-28.52 810.58c924.99,0.04 2004.48,16.24 2910.26,-0.3l2.93 -678.25c-230.41,23.93 -513.94,104.6 -754.19,152.15 -817.73,161.84 -491.63,177.41 -1438.45,-144.32 -195.17,-66.32 -500.48,-203.75 -691.89,-238.22l-0.13 98.36z"/>
  <path class="fil0" d="M7352.02 3030.83c304.64,-84.9 174.04,-73.44 588.76,139.7 81.67,41.97 524.97,291.44 575.43,300.86 89.92,16.78 1203.36,-290.5 1413.45,-327.56 -128.6,-302.98 -480.27,-375.62 -790.36,-375.62l-1125.94 0c-283.01,0 -538.99,75.58 -661.34,262.61z"/>
  <path class="fil0" d="M3412.17 5508.32c-473.13,117.52 -261.34,803.14 195.61,660.12 392.85,-122.96 257.2,-772.57 -195.61,-660.12z"/>
 </g>
</svg>
