<?xml version="1.0" encoding="UTF-8"?>
<!DOCTYPE svg PUBLIC "-//W3C//DTD SVG 1.1//EN" "http://www.w3.org/Graphics/SVG/1.1/DTD/svg11.dtd">
<!-- Creator: CorelDRAW 2020 (64 Bit) -->
<svg xmlns="http://www.w3.org/2000/svg" xml:space="preserve" width="160mm" height="160mm" version="1.1" style="shape-rendering:geometricPrecision; text-rendering:geometricPrecision; image-rendering:optimizeQuality; fill-rule:evenodd; clip-rule:evenodd"
viewBox="0 0 15998 15998"
 xmlns:xlink="http://www.w3.org/1999/xlink"
 xmlns:xodm="http://www.corel.com/coreldraw/odm/2003">
 <defs>
  <style type="text/css">
   <![CDATA[
    .fil1 {fill:var(--icon-color, #4f758b)}
   ]]>
  </style>
 </defs>
 <g id="Camada_x0020_1">
  <metadata id="CorelCorpID_0Corel-Layer"/>
  <g id="_2997305042880">
   <path class="fil1" d="M5208.06 4680.52c-3480,-45.87 -2835.66,-630.15 -2836.18,4651.61 -0.32,3364.39 -327.16,3117.79 1625.88,3112.38 1373.4,-3.8 8737.2,157.47 9384.87,-91.17 443.16,-288.81 238.96,-3521.84 239.19,-4148.59 0.96,-2735.16 358.02,-3403.08 -830.45,-3551.81 -101.33,-400.43 -114.09,-583.14 -580.91,-582.59 -544.64,0.64 -419.11,230.24 -615.59,598.86l-799.06 9.71c-319.46,-403.98 -296.34,-878.23 -863.71,-1069.84 -398.95,-134.71 -3371.96,-134.8 -3775.27,-18.77 -627.13,180.42 -645.98,659.88 -948.77,1090.2zm2279.76 1754.02c-2881.3,718.55 -1754.51,4953.17 1067.83,4247.43 2730.33,-682.77 1755.07,-4951.4 -1067.83,-4247.43zm-189.59 -546.61c-1291.09,353.62 -2409.34,1658.57 -1994.75,3341.62 326.98,1327.37 1744.04,2468.72 3437.68,1999.81 3494.51,-967.54 2072.83,-6304.34 -1442.93,-5341.43z"/>
  </g>
 </g>
</svg>
