<?xml version="1.0" encoding="UTF-8"?>
<!DOCTYPE svg PUBLIC "-//W3C//DTD SVG 1.1//EN" "http://www.w3.org/Graphics/SVG/1.1/DTD/svg11.dtd">
<!-- Creator: CorelDRAW 2020 (64 Bit) -->
<svg xmlns="http://www.w3.org/2000/svg" xml:space="preserve" width="113.104mm" height="112.797mm" version="1.1" style="shape-rendering:geometricPrecision; text-rendering:geometricPrecision; image-rendering:optimizeQuality; fill-rule:evenodd; clip-rule:evenodd"
viewBox="0 0 27202.26 27128.49"
 xmlns:xlink="http://www.w3.org/1999/xlink"
 xmlns:xodm="http://www.corel.com/coreldraw/odm/2003">
 <defs>
  <style type="text/css">
   <![CDATA[
    .fil0 {fill:#4f758b}
   ]]>
  </style>
 </defs>
 <g id="Camada_x0020_1">
  <metadata id="CorelCorpID_0Corel-Layer"/>
  <path class="fil0" d="M3339.96 17235.38l11.59 9111.02c-698.5,23.86 -2966.1,-107.53 -3194.65,144.04 -223.07,245.51 -80.52,568.94 243.97,638.06l26427.85 -0.12c324.8,-69.39 465.89,-392.68 243.63,-637.51 -229.06,-252.36 -2484.34,-120.25 -3170.31,-144.47l-25.73 -2497.16c764.43,-31.55 2787.16,194.28 3229.55,-185.43 155.2,-375.33 98.61,-1752.14 0.51,-2142.67 -602.93,-268.96 -2365.91,-75.11 -3228.56,-129.01l11.3 -830.71c1834.61,-59.6 1646.75,387.34 1646.94,-1988.34 0.05,-666.23 81.53,-1544.53 -126.84,-2039.35 -427.55,-115.52 -1022.49,-56.42 -1527.31,-82.45 -10.94,-507.37 46.27,-1127.66 -87.14,-1538.16 -420.98,-153.08 -1732.83,-192.5 -2160.21,-24.6 -345.25,327.71 -180.36,1090.89 -196.9,1573.01 -818.25,4.21 -1776.43,-48.15 -2573.69,-3.58 -424.21,23.71 -714.67,328.39 -425.1,671.09 169.75,200.87 785.78,134.08 1108.4,133 1723.23,-5.72 3457.23,-14.48 5179.79,2.14l-16.33 850.09 -17243.43 0.22 -35.59 -833.09c1773.88,-151.54 9013.99,261.17 9901.83,-155.46l38.29 -520.36c-610.84,-323.14 -5464.69,-117.68 -6643.44,-149.16 -12.41,-465.19 135.77,-1275.24 -189.64,-1520.72 -300.15,-250.15 -1826.98,-150.41 -2174.64,-8.2 -147.82,450.35 -69.07,1029.27 -83.72,1531.31 -458.89,7.74 -1271.92,-135 -1523.22,176.87 -259.92,317.16 -191.06,3397.85 -32.44,3828.65 399.51,147.43 1026.27,87.38 1526.3,93.03l42.67 843.84c-824.96,16.96 -2697.16,-150.36 -3231.98,140.14 -138.75,456.19 -209.29,1934.39 137.06,2246.64 542.01,160.61 2356.05,45.82 3076.82,55.1l7.24 2508.17 -4126.13 1.37 -24.19 -9113.81c1595.98,-279.01 2554.08,-1079.59 3039.19,-2316.1 308.86,-787.27 265.71,-1471.83 265.57,-2373.63 -0.14,-830.3 308.88,-2193.54 -692.39,-1873.43 -327.88,735.47 98.94,2774.99 -284.33,3875.02 -325.41,933.98 -1178.39,1725.13 -2316.46,1877.71 -27.95,-519.98 -11.09,-1065.32 -11.64,-1588.5 -1.42,-1359.17 -177.9,-949.06 1043.77,-2169.01 263.96,-263.6 754.69,-533.78 501.65,-1002.02 -509.83,-488.69 -1042.67,656.01 -1539.94,887.06 -9.33,-489.45 35.47,-5554.45 -48.08,-5746.11 -106.81,-245.05 -423.97,-323.96 -629.65,-109.43 -179.08,186.78 -105.56,633.06 -115.47,918.47 -353.4,-216.62 -581.26,-588.13 -903.97,-858.8 -445.44,-373.58 -935.31,76.84 -612.09,525.77 684.75,951.11 1532.94,1021.02 1529.36,2033.72 -8.06,2285.27 110.15,4865.57 -17.39,7110.91 -1032.93,-175.38 -1706.76,-721.57 -2105.35,-1416.25 -530.08,-923.88 -393.28,-2044.28 -393.28,-3228.73 0,-1216.12 0.1,-2432.22 0,-3648.34 -0.12,-1295.9 -76.19,-2080.09 657.3,-2964.68 1332.48,-1606.92 3658.87,-1374.59 4701.83,289.23 896.22,1429.79 -47.16,5173.59 1096.76,4081.28 213.55,-203.93 411.05,-3317.19 -525.82,-4652.36 -1856.45,-2645.76 -5798.47,-1877.73 -6599.69,1157.68 -297.19,1125.98 -120.04,5692.31 -119.44,7179.92 0.91,2296.72 1236.66,3685.14 3287,4007.2zm5730.65 -809.42l843.82 43.89 0.34 -858.27 -835.42 12.75 -8.73 801.63zm9.16 4968.79c923.26,69.92 907.72,100.27 830.16,-809.71l-819.89 -25.95 -10.27 835.66zm13170.02 4956.48l822.89 -1.54 24.32 -2497.37 -840.11 -13.42 -7.09 2512.33zm-13176.78 -20.54l838.77 13.3 13.01 -2460.6 -847.98 -37.71 -3.8 2485.01zm13165.38 -4928.51l857.62 -3.58 -10.97 -834.75 -802.57 -9.5 -44.08 847.83zm6.47 -4942.77l846.68 -2.98 0.29 -831.79 -829.48 -13.81 -17.48 848.58zm-11518.29 9890.11l10709.45 2.53 11.74 -2465.91c-668.56,-170.3 -4319.96,-46.15 -5290.23,-46.15 -1798.53,0 -3629.49,-33.6 -5424.03,5.15l-6.93 2504.4zm-10.87 -4951.09c1663.42,52.45 2534.94,-274.71 2375.6,643.4 -531.28,330.96 -6247.74,160.9 -7303.68,164.92l3.92 851.66 20586.26 -0.36 10.49 -819.5c-632.39,-98.9 -8011.32,-32.83 -9298.44,-32.83 -793.84,0 -2406.27,174.61 -2952.12,-163.21 -133.77,-834.68 540.11,-637.49 1256.91,-636.12 1272.09,2.45 5292.16,81.51 6017.74,-35.11l33.31 -784.46 -10687.61 -32.4 -42.38 844.01zm-3273.61 -1659.33l17268.93 11.69 16.93 -849.2 -17287.64 -1.71 1.78 839.22z"/>
  <path class="fil0" d="M19868.68 2492.87c-1049.21,190.89 -1889.04,1131.97 -1673.49,2411.3 163.88,972.66 1207.78,1865.25 2431.04,1601.22 2595.93,-560.28 1783.07,-4474.7 -757.55,-4012.52zm-131.61 880.93c-1590.85,703.46 -540.8,2839.28 905.34,2299.22 1547.3,-577.84 616.9,-2972.35 -905.34,-2299.22z"/>
  <path class="fil0" d="M20035.45 43.29c-453.33,204.19 -413.96,1816.11 314.68,1528.37 434.86,-171.72 424.11,-1861.11 -314.68,-1528.37z"/>
  <path class="fil0" d="M19792.47 8052.26l0 339.38c0,590.71 186.37,698.91 718.32,546.67l103.15 -543.79 -18.06 -342.26c0,-859.26 -803.41,-940.16 -803.41,0z"/>
  <path class="fil0" d="M16983.57 7724.16c661.71,237.84 1526.76,-778.26 1168.65,-1157.56 -332.38,-352.05 -689.99,92.02 -852.28,253.57 -269.03,267.8 -489.21,399.55 -316.36,903.99z"/>
  <path class="fil0" d="M23700.77 4899.99c545.11,0 954.43,88.1 997.09,-338.32 52.26,-522.69 -528.56,-446.48 -997.09,-446.48 -873.69,0 -809.14,784.8 0,784.8z"/>
  <path class="fil0" d="M23440.37 1341.62c-395.15,-224.97 -487.17,-171.19 -800.69,131.97 -1017.32,983.7 -240.12,1398.57 366.6,792.85 245.08,-244.64 534,-382.38 434.09,-924.82z"/>
  <path class="fil0" d="M17133.88 1283.78c-343.95,223.07 -356.38,351.96 125.91,828.88 185.24,183.19 458.48,660.5 861.16,360.35 388.35,-289.47 -95.1,-668.85 -239.45,-812.84 -186.25,-185.79 -399.05,-602.47 -747.61,-376.39z"/>
  <path class="fil0" d="M22344.34 6515.13c-503.33,281.56 -26.43,663.2 170.54,857.98 176.34,174.42 471.2,641.67 844.13,338.32 440.56,-358.38 -610.31,-1422.5 -1014.67,-1196.3z"/>
  <path class="fil0" d="M15739.21 4752.87c322.01,203.88 406.26,147.12 926.84,147.12 753.44,0 1155.15,-784.8 -339.02,-784.8 -494.36,0 -672.82,134.92 -587.82,637.68z"/>
 </g>
</svg>
