<?xml version="1.0" encoding="UTF-8"?>
<!DOCTYPE svg PUBLIC "-//W3C//DTD SVG 1.1//EN" "http://www.w3.org/Graphics/SVG/1.1/DTD/svg11.dtd">
<!-- Creator: CorelDRAW 2020 (64 Bit) -->
<svg xmlns="http://www.w3.org/2000/svg" xml:space="preserve" width="160mm" height="160mm" version="1.1" style="shape-rendering:geometricPrecision; text-rendering:geometricPrecision; image-rendering:optimizeQuality; fill-rule:evenodd; clip-rule:evenodd"
viewBox="0 0 15998 15998"
 xmlns:xlink="http://www.w3.org/1999/xlink"
 xmlns:xodm="http://www.corel.com/coreldraw/odm/2003">
 <defs>
  <style type="text/css">
   <![CDATA[
    .fil1 {fill:var(--icon-color, #4f758b)
   ]]>
  </style>
 </defs>
 <g id="Camada_x0020_1">
  <metadata id="CorelCorpID_0Corel-Layer"/>
  <g id="_2997302441712">
   <path class="fil1" d="M6009.72 4603.99l982.09 -0.32c672.36,0.34 148.51,400.74 -174.88,741.75 -203.82,214.92 -408.26,391.83 -606.18,607.09l-1200.01 1247.92c373.7,19.18 1792.79,-62.38 1879.48,82.67 49.58,172.85 -133.25,294.86 -229.77,390.24l-1642.68 1640.57c-173.49,172.59 -533.96,495 -656.14,668.77 2987.07,23.85 6055.09,2.96 9043.21,2.71l-1958.91 -1968.72c-191.7,-191.01 -659.22,-567.05 -562.48,-732.49 94.61,-108.22 184.92,-71.93 337.62,-72.28l1538.35 0.37c-50.1,-94 -515.69,-570.73 -620.21,-658.59 -283.94,-238.65 -949.62,-987.66 -1282.36,-1319.65 -87.21,-87.01 -805.6,-626.86 -138.55,-626.74l1036.37 -1.7c-52.95,-92.7 -251.43,-299.89 -337.16,-376.01 -517.09,-459.12 -1976.54,-2110.7 -2344.18,-2417.56 -74.51,-62.18 -119.26,-125.71 -188.7,-189.58l-2874.9 2981.54z"/>
   <polygon class="fil1" points="8176.99,14402.02 9587.01,14400.93 9593.09,10326.24 8173.92,10324.85 "/>
   <path class="fil1" d="M3553.44 4887.64c-621.18,0 -1126.57,-505.37 -1126.57,-1126.58 0,-621.19 505.39,-1126.59 1126.57,-1126.59 621.19,0 1126.59,505.4 1126.59,1126.59 0,621.21 -505.4,1126.58 -1126.59,1126.58z"/>
   <path class="fil1" d="M3553.44 2400.96c-87.43,0 -158.32,-70.88 -158.32,-158.32l0 -514.77c0,-87.44 70.89,-158.32 158.32,-158.32 87.44,0 158.33,70.88 158.33,158.32l0 514.77c0,87.43 -70.89,158.32 -158.33,158.32z"/>
   <path class="fil1" d="M3553.44 5952.53c-87.43,0 -158.32,-70.89 -158.32,-158.33l0 -514.76c0,-87.44 70.89,-158.33 158.32,-158.33 87.44,0 158.33,70.89 158.33,158.33l0 514.76c0,87.46 -70.89,158.33 -158.33,158.33z"/>
   <path class="fil1" d="M5586.6 3919.36l-514.76 0c-87.44,0 -158.33,-70.88 -158.33,-158.32 0,-87.44 70.89,-158.33 158.33,-158.33l514.76 0c87.44,0 158.32,70.89 158.32,158.33 0,87.44 -70.86,158.32 -158.32,158.32z"/>
   <path class="fil1" d="M2035.04 3919.36l-514.76 0c-87.44,0 -158.32,-70.88 -158.32,-158.32 0,-87.44 70.88,-158.33 158.32,-158.33l514.76 0c87.44,0 158.33,70.89 158.33,158.33 0,87.44 -70.89,158.32 -158.33,158.32z"/>
   <path class="fil1" d="M4627.12 2845.67c-40.5,0 -81.04,-15.45 -111.95,-46.37 -61.83,-61.83 -61.83,-162.08 0,-223.89l363.99 -363.97c61.83,-61.83 162.08,-61.85 223.89,0 61.83,61.83 61.83,162.08 0,223.89l-363.99 363.97c-30.91,30.93 -71.43,46.37 -111.95,46.37z"/>
   <path class="fil1" d="M2115.77 5357.04c-40.51,0 -81.04,-15.46 -111.95,-46.38 -61.83,-61.82 -61.83,-162.08 0,-223.88l363.99 -363.99c61.83,-61.83 162.08,-61.83 223.89,0 61.83,61.82 61.83,162.08 0,223.88l-363.99 363.99c-30.91,30.93 -71.42,46.38 -111.95,46.38z"/>
   <path class="fil1" d="M4991.1 5357.04c-40.5,0 -81.04,-15.46 -111.95,-46.38l-363.99 -363.99c-61.83,-61.83 -61.83,-162.08 0,-223.88 61.83,-61.83 162.08,-61.83 223.89,0l363.99 363.99c61.83,61.82 61.83,162.08 0,223.88 -30.91,30.93 -71.41,46.38 -111.95,46.38z"/>
   <path class="fil1" d="M2479.76 2845.67c-40.51,0 -81.04,-15.45 -111.95,-46.37l-363.99 -363.97c-61.83,-61.83 -61.83,-162.06 0,-223.89 61.83,-61.83 162.08,-61.85 223.89,0l363.99 363.97c61.83,61.83 61.83,162.06 0,223.89 -30.91,30.93 -71.42,46.37 -111.95,46.37z"/>
  </g>
 </g>
</svg>
