<?xml version="1.0" encoding="UTF-8"?>
<!DOCTYPE svg PUBLIC "-//W3C//DTD SVG 1.1//EN" "http://www.w3.org/Graphics/SVG/1.1/DTD/svg11.dtd">
<!-- Creator: CorelDRAW 2020 (64 Bit) -->
<svg xmlns="http://www.w3.org/2000/svg" xml:space="preserve" width="160mm" height="160mm" version="1.1" style="shape-rendering:geometricPrecision; text-rendering:geometricPrecision; image-rendering:optimizeQuality; fill-rule:evenodd; clip-rule:evenodd"
viewBox="0 0 15998 15998"
 xmlns:xlink="http://www.w3.org/1999/xlink"
 xmlns:xodm="http://www.corel.com/coreldraw/odm/2003">
 <defs>
  <style type="text/css">
   <![CDATA[
    .fil1 {fill:var(--icon-color, #4f758b)}
   ]]>
  </style>
 </defs>
 <g id="Camada_x0020_1">
  <metadata id="CorelCorpID_0Corel-Layer"/>
  <g id="_2997304815680">
   <path class="fil1" d="M7268.39 9015.98c377.74,-310.76 660.81,-1569.22 1092.66,-1975.08 299.63,3571.92 83,2846.71 -258.67,6350.69 -61.21,627.74 67.65,1056.26 670.4,1077.31 1337.27,46.71 621.84,-2682.43 1224,-4039.07 117.38,1072.83 241.75,2145.93 385.69,3206.03 161.77,1191.73 1625.2,1186.57 1456.39,-293.32 -252.28,-2211.39 -672.17,-4098.13 -267.68,-6334.12 778.59,951.22 709.03,2296.89 1726.58,2353.37 474.06,-83.31 529.13,-476.99 284.21,-1092.85 -224.1,-563.72 -1248.51,-2550.04 -1511.69,-2925.41 -276.29,-394.12 -899.83,-258.65 -1458.06,-258.22 -587.86,0.45 -1176.35,-5.66 -1764.3,-9.69 -1110.59,-7.67 -869.51,-29.3 -1742.84,1756.2 -286.91,586.6 -1098.77,1777.89 -874.93,2418.71 -546.29,404.81 -355.54,373.51 -1240.25,365.52 -522.63,-4.73 -1056.35,-98.9 -1393.06,179.53 -647.65,535.55 -1465.03,1110.45 -1302.66,1664.12 645.58,144.56 869.37,-573.7 1389.79,-654.27 254.06,2128.48 -272.02,2936.97 19.39,3616.93 996.58,240.81 666.61,-713.35 950.22,-1436.57 179.65,343.17 144.32,1982.14 915.99,1417.49 338.73,-247.85 1.72,-1682.71 -45.38,-2127.26 -47.23,-446.1 -0.26,-718.64 62.21,-1154.18 109.29,-761.99 347.14,-485.78 1119.04,-1403.24 243.29,-289.2 405.14,-285.47 562.95,-702.6zm-2845.97 -1464.03c-430.05,138.31 -747.46,451.43 -577.67,1077.84 114.9,423.91 563.99,712.89 1122.62,541.85 1000.7,-306.38 527.19,-1964.53 -544.95,-1619.69zm5048.7 -5980.49c-1984.99,702.41 -920.71,3531.97 984.05,2890.62 648.7,-218.42 1248.36,-1040.09 920.42,-1960.99 -229.67,-644.98 -957.26,-1264.79 -1904.47,-929.62z"/>
  </g>
 </g>
</svg>
