<?xml version="1.0" encoding="UTF-8"?>
<!DOCTYPE svg PUBLIC "-//W3C//DTD SVG 1.1//EN" "http://www.w3.org/Graphics/SVG/1.1/DTD/svg11.dtd">
<!-- Creator: CorelDRAW 2020 (64 Bit) -->
<svg xmlns="http://www.w3.org/2000/svg" xml:space="preserve" width="80.0133mm" height="69.9508mm" version="1.1" style="shape-rendering:geometricPrecision; text-rendering:geometricPrecision; image-rendering:optimizeQuality; fill-rule:evenodd; clip-rule:evenodd"
viewBox="0 0 5196.48 4542.97"
 xmlns:xlink="http://www.w3.org/1999/xlink"
 xmlns:xodm="http://www.corel.com/coreldraw/odm/2003">
 <defs>
  <style type="text/css">
   <![CDATA[
    .fil0 {fill: var(--icon-color, #4f758b)}
   ]]>
  </style>
 </defs>
 <g id="Camada_x0020_1">
  <metadata id="CorelCorpID_0Corel-Layer"/>
  <g id="_1884909051552">
   <path class="fil0" d="M3510.98 1890.52c15.91,77.8 -298.77,685.52 -360.1,821.82 -208.23,462.8 -337.24,627.37 215.98,671.65 16.88,207.42 5.95,454.46 5.73,666.09 -0.22,218.9 -42.66,481.11 199.71,485.21 361.69,6.11 135.66,-662.29 213.88,-1141.51l190.82 -11.35c65.67,520.26 -139.45,1153.9 212.53,1151.89 340.48,-1.94 145.87,-610.56 206.67,-1148.95 538.05,-55.72 467.38,-180.5 142.01,-829.82 -81.29,-162.22 -159.31,-336.68 -234.36,-498.95 -185.2,-400.41 204.39,-134.14 462.12,500.7 39.85,98.17 56.89,184.9 147.61,222.37 115.58,47.73 229.26,-5.2 266.83,-76.41 99.5,-188.63 -289.93,-848.38 -435.62,-1017.2 -433.15,-501.93 -1462.16,-576.57 -1924.94,282.31 -81.03,150.39 -159.1,332.51 -230.04,503.47 -121.32,292.37 176.09,410.95 315.46,270.09 86.44,-87.36 170.57,-484.1 385.23,-713.62 119.97,-128.27 148.57,-162.06 220.48,-137.79z"/>
   <path class="fil0" d="M641.72 1987.93c74.69,123.06 19.67,1978.83 26.16,2292.37 3.68,177.73 100.15,326.42 300.79,234.76 155.76,-71.15 107.96,-322.88 107.91,-487.89l-1.29 -871.53c-1.84,-128.71 -31.97,-197.3 94.28,-202.53 161.41,-6.69 112.21,139.76 112.28,455.46 0.05,190.94 -1.36,381.81 -1.43,572.78 -0.06,164.16 -36.14,409.45 70.66,504.66 145.46,129.66 323.39,21.65 334.36,-162.64 35.75,-600.64 -48.07,-1881.3 11.38,-2335.38 282.71,35.35 225.33,686.89 269.83,782.98 51.62,111.46 493.67,311.98 363.94,-479.04 -208.93,-1273.89 -2103.16,-1293.51 -2306,17.86 -20.63,133.37 -49.16,353.28 14.23,464.25 71.5,125.14 260.03,126.12 335.83,24.11 68.46,-92.11 -2.97,-723.41 267.05,-810.21z"/>
   <path class="fil0" d="M3444.09 107.78c-64.58,-39.68 -78.3,-74.52 -176.35,-95.87 -384.28,-86.59 -321.32,333.51 -396.2,451.73l-56.95 81.02c211.36,105.4 331.68,50.16 523.45,-6 -124.72,888.05 1222.28,863.45 1086.51,1.94 195.17,49.57 344.07,108.28 533.44,-3.87 -221.74,-239.42 -27.89,-356.15 -245.69,-492.38 -130.01,-81.32 -298.83,-46.73 -378.18,70.71 -29.23,43.26 -14.72,30 -30.85,59.81l-52.75 79.61c-154.8,-214.99 -580.42,-213.14 -739.92,-0.74 -77.03,-77.82 -62.78,-101.12 -66.52,-145.96z"/>
   <path class="fil0" d="M1100.96 100.67c-754.03,127.27 -542.03,1213.92 169.49,1095.16 268.2,-44.77 506.74,-311.79 455.38,-636.18 -43.3,-273.52 -306.54,-512.71 -624.87,-458.98z"/>
  </g>
 </g>
</svg>
