<?xml version="1.0" encoding="UTF-8"?>
<!DOCTYPE svg PUBLIC "-//W3C//DTD SVG 1.1//EN" "http://www.w3.org/Graphics/SVG/1.1/DTD/svg11.dtd">
<!-- Creator: CorelDRAW 2020 (64 Bit) -->
<svg xmlns="http://www.w3.org/2000/svg" xml:space="preserve" width="160mm" height="160mm" version="1.1" style="shape-rendering:geometricPrecision; text-rendering:geometricPrecision; image-rendering:optimizeQuality; fill-rule:evenodd; clip-rule:evenodd"
viewBox="0 0 15998 15998"
 xmlns:xlink="http://www.w3.org/1999/xlink"
 xmlns:xodm="http://www.corel.com/coreldraw/odm/2003">
 <defs>
  <style type="text/css">
   <![CDATA[
    .fil1 {fill:var(--icon-color, #4f758b)}
   ]]>
  </style>
 </defs>
 <g id="Camada_x0020_1">
  <metadata id="CorelCorpID_0Corel-Layer"/>
  <g id="_2997304852208">
   <g>
    <path class="fil1" d="M6104.36 1588.54c-828.94,112.07 -1112.71,1215.8 -1777.21,1594.25 -831.25,473.4 -1795.87,342.23 -1952.56,1428.73 -73.28,508.12 27.73,1076 -139.73,1550.61 -138.89,393.62 -452.81,725.48 -650.51,1040.34 -681.17,1084.93 42.69,1561.37 499.28,2319.18 566.12,939.58 -105.51,2030.36 721.94,2639.03 316.54,232.85 784.22,341.27 1191.21,498.93 992.03,384.32 1028.89,1210.85 1747.98,1633.6 422.44,248.34 945.65,64.8 1368.45,-61.44 539.61,-161.14 824.64,-262.65 1420.02,-105.01 1127.13,298.41 1516.66,635.78 2329.75,-435.26 230.6,-303.75 483.85,-690.61 812.8,-877.64 816.54,-464.25 1796.92,-338.31 1954.35,-1427.54 72.61,-502.37 -28,-1099.42 139.07,-1550.58 289.6,-782.06 1276.98,-1383.55 817.66,-2334.24 -162.18,-335.69 -448.79,-676.08 -663.57,-1027.38 -278.15,-455 -252.18,-825.22 -263.5,-1413.44 -25.88,-1344.35 -578.93,-1308.43 -1652.39,-1721.97 -350.99,-135.21 -512.9,-259.62 -750.8,-516.66 -284.62,-307.5 -562.59,-866.37 -996.71,-1117.04 -787.61,-454.78 -1574.25,481.51 -2788.12,166.25 -388.72,-100.97 -944.65,-339.88 -1367.42,-282.71zm-2271.82 6265.06l292.98 2436.58 461.95 -127.62 -112.33 -1001.48 884.19 -268.41 -41.29 -404.44c-192.27,35.27 -770.27,255.07 -897.38,244.3 -11.06,-96.11 -85.46,-532.2 -53.33,-614.76l974.08 -294.43 -40.47 -409.72 -1468.4 440zm4119.3 -1228.29l292.37 2421.74 1514.95 -446.64 -44.89 -400.6 -1047.36 308.98 -81.34 -659.22c137.82,-22.25 796.51,-219.1 885.83,-273.21l-39.78 -374.86 -896.92 259.01 -67.36 -582.56 1036.43 -310.96 -42.31 -406.5c-189.01,32 -847.54,253.11 -1124.7,334.86 -81.72,24.11 -317.98,82.19 -384.92,129.96zm1960.28 -591.76l295.43 2423.86 1506.83 -446.56c6.46,-73.54 -5.85,-131.19 -14.47,-202.91l-21.56 -148.62c-12.44,-42.64 -9.14,-30.17 -19.68,-49.77l-1028.98 306.15 -81.99 -658.65c133.86,-23.44 803.11,-218.85 885.6,-272.45l-38.93 -372.46c-121.11,-8.93 -708.62,214.53 -899.66,252.72l-65.74 -582 1018.69 -302.22c30.7,-90.59 -9.68,-290.24 -24.22,-410.87 -189.87,30.55 -849.31,252.27 -1122.41,332.01 -97.23,28.39 -321.72,81.3 -388.93,131.78zm-3873.76 3681.19l470.49 -128.64 -105.4 -888.92c98.23,-59.33 259.28,-94.88 373.2,-118.9 52.31,47.62 500.92,699.42 523.19,756.47l509.41 -145.1c-61.03,-153.89 -551.4,-729.7 -606.29,-873.58 121.89,-140.17 267.9,-232.19 311.27,-488.98 40.69,-240.91 -38.61,-499.47 -157.44,-640.54 -288.74,-342.78 -826.9,-145.22 -1227.37,-25.52 -97.21,29.06 -224.66,60.37 -311.51,91.45 -76.61,27.43 -71.65,18.59 -66.5,102.47l111.99 900.03c56.38,470.22 145.29,993.08 174.96,1459.77z"/>
    <path class="fil1" d="M6271.02 7539.08l80.44 734.62c324.93,-73.18 697.97,-161.73 694.4,-528.16 -5.31,-544.51 -529.26,-265.3 -774.84,-206.45z"/>
   </g>
  </g>
 </g>
</svg>
