<?xml version="1.0" encoding="UTF-8"?>
<!DOCTYPE svg PUBLIC "-//W3C//DTD SVG 1.1//EN" "http://www.w3.org/Graphics/SVG/1.1/DTD/svg11.dtd">
<!-- Creator: CorelDRAW 2020 (64 Bit) -->
<svg xmlns="http://www.w3.org/2000/svg" xml:space="preserve" width="70.0645mm" height="70.0871mm" version="1.1" style="shape-rendering:geometricPrecision; text-rendering:geometricPrecision; image-rendering:optimizeQuality; fill-rule:evenodd; clip-rule:evenodd"
viewBox="0 0 5313.06 5314.77"
 xmlns:xlink="http://www.w3.org/1999/xlink"
 xmlns:xodm="http://www.corel.com/coreldraw/odm/2003">
 <defs>
  <style type="text/css">
   <![CDATA[
    .fil0 {fill: var(--icon-color, #4f758b)}
   ]]>
  </style>
 </defs>
 <g id="Camada_x0020_1">
  <metadata id="CorelCorpID_0Corel-Layer"/>
  <g id="_1884827877168">
   <path class="fil0" d="M4992.98 2169.51c-9.52,37.98 -2.81,44.48 -49.28,96.05 -23.99,26.62 -46.92,46.87 -72.68,72.63 -50.98,50.98 -94.35,94.35 -145.33,145.33 -338.56,338.56 -2450.56,2462.07 -2493.76,2488.84 -74.22,45.99 -157.05,32.51 -215.84,-23.18 -199.75,-189.18 -390.5,-391.13 -586.17,-586.8l-1022.48 -1022.47c-202.07,-201.36 -46.6,-280.39 181.66,-508.65 101.15,-101.14 194.7,-194.69 295.85,-295.84 236.98,-236.98 2154.62,-2166.17 2197.92,-2192.99 71.64,-44.39 149.43,-21.98 243.26,-4.24 168.42,31.85 323.98,57.45 491.21,90.09 160.88,31.41 338.34,57.28 501.83,89.85 83.18,16.57 161.25,27.09 245.8,44.85 87.15,18.3 141.39,34.61 170.21,120.44l94.7 496.99c46.72,284.25 127.17,648.36 165.53,925.5 6.99,50.47 8.8,18.93 -2.41,63.6zm-4992.98 975.76l0 5.54 0 5.42c0.04,110.96 1.61,148.51 65.53,266.05 54.2,99.66 806.5,828.57 902.45,924.51l778.53 778.53c141.25,141.27 217.35,189.44 423,189.44 53.46,0 109.04,-18.23 151.53,-35.32 132.11,-53.16 225.81,-170.73 323.38,-268.31l2356.35 -2356.36c67.17,-67.16 132.94,-128.39 197.41,-197.05 157.51,-167.71 119.38,-371.02 81.09,-574.51 -40.06,-212.87 -208.05,-1228.74 -251.28,-1326.54 -18.16,-41.07 -23.79,-53.73 -47.16,-87.79 -58.14,-84.75 -121.5,-136.81 -215.62,-178.83 -106.53,-47.57 -1108.98,-214.12 -1324.9,-252.93 -129.09,-23.2 -221.31,-37.23 -295.51,-37.13l-1.64 0c-175.8,0.71 -250.63,81.47 -477.98,308.81 -288.82,288.82 -2478.73,2462.98 -2551.08,2556.07 -58.64,75.45 -114.09,171.8 -114.09,280.38z"/>
   <path class="fil0" d="M4037.98 1162.61c137.53,0 145.52,217.99 10.38,217.99l-20.76 0c-135.37,0 -131.47,-217.99 10.38,-217.99zm-425.59 62.28l0 83.05c0,274.36 333.07,482.01 595.46,356.71 64.88,-30.98 93.48,-49.6 140.6,-98.15 241.49,-248.84 92.48,-702.29 -302.27,-722.47 -226.33,-11.57 -433.79,204.46 -433.79,380.86z"/>
   <path class="fil0" d="M1959.38 2971.32c145.1,-215.43 293.17,-124.04 293.17,18.24 0,31.84 -99.28,128.39 -124.57,145.32l-168.6 -163.57zm-257 7.86c0,62.89 253.85,290.18 308.82,345.15 57.9,57.9 108.19,108.19 166.09,166.09 32.47,32.47 135.07,153.11 179.07,153.11 48.47,0 124.56,-76.09 124.56,-124.56 0,-57.65 -200.18,-212.29 -238.75,-269.9l54.26 -49.54c41.06,7.76 96.24,25.94 141.74,40.39 45.1,14.32 89.96,29.92 140.07,46.78 36.1,12.15 108.85,42.47 144.89,28.94 51.77,-19.44 114.94,-160.65 19.31,-203.52l-313.42 -91.41c5.87,-25.21 20.76,-67.45 20.76,-93.42 0,-110.58 -202.4,-509.24 -552.76,-158.3 -30.91,30.96 -194.64,180.22 -194.64,210.2z"/>
   <path class="fil0" d="M2252.55 2439.4c0,62.75 248.7,285.03 303.63,339.96 40.77,40.77 297.4,314.01 329.58,314.01 87.9,0 146.85,-89.77 241.35,-184.25 37.13,-37.13 66.66,-66.68 103.8,-103.81 25.84,-25.82 90.83,-76.16 90.83,-116.78 0,-46.17 -64.34,-103.8 -114.19,-103.8 -40.25,0 -228.07,224.56 -280.27,259.51l-158.21 -153.2c263.79,-182.71 114.77,-262.02 85.55,-262.02 -97.52,0 -114,89.59 -197.23,145.33l-158.21 -153.2c23.16,-15.9 262.02,-234.69 262.02,-282.78 0,-44.92 -36,-103.81 -114.18,-103.81 -29.77,0 -175.09,159.52 -205.02,189.45 -36.02,36.02 -189.44,170.22 -189.44,215.39z"/>
   <path class="fil0" d="M3394.39 2595.1c71.74,0 154.04,-107.33 225.78,-179.06 40.95,-40.95 199.82,-176.6 199.82,-225.77 0,-52.76 -47.55,-103.81 -114.19,-103.81 -31.07,0 -254.89,237.1 -269.89,259.51l-158.22 -153.19c61.04,-88.27 147.84,-102.58 147.84,-199.74 0,-33.05 -52.89,-72.66 -93.42,-72.66 -31.85,0 -147.87,128.5 -166.09,155.7l-158.22 -153.19c43.19,-63.25 262.02,-234.14 262.02,-293.16 0,-44.69 -66.06,-103.81 -114.18,-103.81 -29.35,0 -383.48,363.14 -395.91,394.33 -24.02,60.26 59.97,115.74 97.47,153.24 60.08,60.08 502.48,521.61 537.19,521.61z"/>
   <path class="fil0" d="M1224.89 3487.82c0,16.91 592.95,633.2 643.59,633.2 48.95,0 101.04,-42.93 117.96,-80.15 50.22,-110.49 -130.13,-156.86 -242.52,-324.69 237.02,-158.71 145.81,-269.89 62.29,-269.89 -34.12,0 -139.52,130.97 -176.47,155.7l-153.37 -147.67c69.29,-106.1 263.95,-223.78 253.78,-294.9 -5.71,-39.9 -60.85,-97.21 -100.41,-97.21 -48.02,0 -276.35,250.52 -324.38,298.44 -35.19,35.1 -80.45,61.69 -80.45,127.16z"/>
  </g>
 </g>
</svg>
